<svg id="visual" viewBox="0 0 900 600" width="900" height="600" xmlns="http://www.w3.org/2000/svg" xmlns:xlink="http://www.w3.org/1999/xlink" version="1.1"><rect x="0" y="0" width="900" height="600" fill="#FEFFAE"></rect><path d="M457 600L448.5 588.8C440 577.7 423 555.3 433 533.2C443 511 480 489 500.8 466.8C521.7 444.7 526.3 422.3 513.8 400C501.3 377.7 471.7 355.3 453.8 333.2C436 311 430 289 443.8 266.8C457.7 244.7 491.3 222.3 500.3 200C509.3 177.7 493.7 155.3 483.8 133.2C474 111 470 89 470.3 66.8C470.7 44.7 475.3 22.3 477.7 11.2L480 0L900 0L900 11.2C900 22.3 900 44.7 900 66.8C900 89 900 111 900 133.2C900 155.3 900 177.7 900 200C900 222.3 900 244.7 900 266.8C900 289 900 311 900 333.2C900 355.3 900 377.7 900 400C900 422.3 900 444.7 900 466.8C900 489 900 511 900 533.2C900 555.3 900 577.7 900 588.8L900 600Z" fill="#D8AE7D" stroke-linecap="round" stroke-linejoin="miter"></path></svg>