<?xml version="1.0" standalone="no"?>
<svg xmlns:xlink="http://www.w3.org/1999/xlink" id="wave" style="transform:rotate(0deg); transition: 0.3s" viewBox="0 0 1440 490" version="1.1" xmlns="http://www.w3.org/2000/svg"><defs><linearGradient id="sw-gradient-0" x1="0" x2="0" y1="1" y2="0"><stop stop-color="rgba(243, 106, 62, 1)" offset="0%"/><stop stop-color="rgba(255, 179, 11, 1)" offset="100%"/></linearGradient></defs><path style="transform:translate(0, 0px); opacity:1" fill="url(#sw-gradient-0)" d="M0,441L26.7,416.5C53.3,392,107,343,160,318.5C213.3,294,267,294,320,310.3C373.3,327,427,359,480,367.5C533.3,376,587,359,640,302.2C693.3,245,747,147,800,98C853.3,49,907,49,960,57.2C1013.3,65,1067,82,1120,114.3C1173.3,147,1227,196,1280,245C1333.3,294,1387,343,1440,359.3C1493.3,376,1547,359,1600,326.7C1653.3,294,1707,245,1760,245C1813.3,245,1867,294,1920,285.8C1973.3,278,2027,212,2080,228.7C2133.3,245,2187,343,2240,334.8C2293.3,327,2347,212,2400,138.8C2453.3,65,2507,33,2560,40.8C2613.3,49,2667,98,2720,155.2C2773.3,212,2827,278,2880,285.8C2933.3,294,2987,245,3040,204.2C3093.3,163,3147,131,3200,138.8C3253.3,147,3307,196,3360,212.3C3413.3,229,3467,212,3520,212.3C3573.3,212,3627,229,3680,228.7C3733.3,229,3787,212,3813,204.2L3840,196L3840,490L3813.3,490C3786.7,490,3733,490,3680,490C3626.7,490,3573,490,3520,490C3466.7,490,3413,490,3360,490C3306.7,490,3253,490,3200,490C3146.7,490,3093,490,3040,490C2986.7,490,2933,490,2880,490C2826.7,490,2773,490,2720,490C2666.7,490,2613,490,2560,490C2506.7,490,2453,490,2400,490C2346.7,490,2293,490,2240,490C2186.7,490,2133,490,2080,490C2026.7,490,1973,490,1920,490C1866.7,490,1813,490,1760,490C1706.7,490,1653,490,1600,490C1546.7,490,1493,490,1440,490C1386.7,490,1333,490,1280,490C1226.7,490,1173,490,1120,490C1066.7,490,1013,490,960,490C906.7,490,853,490,800,490C746.7,490,693,490,640,490C586.7,490,533,490,480,490C426.7,490,373,490,320,490C266.7,490,213,490,160,490C106.7,490,53,490,27,490L0,490Z"/></svg>